<svg id="Layer_1" data-name="Layer 1" xmlns="http://www.w3.org/2000/svg" xmlns:xlink="http://www.w3.org/1999/xlink" viewBox="0 0 1526.17 462.5">
  <defs>
    <style>
      .cls-1 {
        fill: url(#New_Gradient_Swatch_1);
      }

      .cls-2 {
        fill: url(#New_Gradient_Swatch_1-2);
      }

      .cls-3 {
        fill: url(#linear-gradient);
      }

      .cls-4 {
        fill: #231f20;
      }

      .cls-5 {
        fill: url(#New_Gradient_Swatch_1-3);
      }
    </style>
    <linearGradient id="New_Gradient_Swatch_1" data-name="New Gradient Swatch 1" x1="250.19" y1="42.5" x2="250.19" y2="242.84" gradientUnits="userSpaceOnUse">
      <stop offset="0" stop-color="#32a8d8"/>
      <stop offset="1" stop-color="#0c3a69"/>
    </linearGradient>
    <linearGradient id="New_Gradient_Swatch_1-2" x1="399.63" y1="171.91" x2="281.51" y2="240.11" xlink:href="#New_Gradient_Swatch_1"/>
    <linearGradient id="linear-gradient" x1="51.72" y1="262.85" x2="362.7" y2="262.85" gradientUnits="userSpaceOnUse">
      <stop offset="0" stop-color="#32a8d8"/>
      <stop offset="1" stop-color="#1e5592"/>
    </linearGradient>
    <linearGradient id="New_Gradient_Swatch_1-3" x1="694.17" y1="120.42" x2="719.09" y2="163.59" xlink:href="#New_Gradient_Swatch_1"/>
  </defs>
  <title>Artboard 1</title>
  <g id="logo">
    <path class="cls-1" d="M140.7,134c-5.3-7.1-5.9-17,.6-24.6l52.8-66.9H363.8L225.46,218.6c-8.34,12.57.83,24.24.83,24.24m-85-133.44"/>
    <path class="cls-2" d="M282,219.49a15.94,15.94,0,0,0-.49,20.3L309,274.72l86.23-110.53-69.68.06Z"/>
    <path class="cls-3" d="M226.4,242.8,141.3,109.4s-78.7,100.1-84.8,108-6.2,17.5-1,24.2L193,416.3H362.7L140.7,134c-5.3-7.1-5.9-17,.6-24.6"/>
  </g>
  <g id="font">
    <path class="cls-4" d="M1007.69,119h107.14c26.38,0,47.15,7.25,60.34,20.44C1185.72,150,1191,162.8,1191,179.29c0,26-13.85,40.55-30.33,49.78,26.7,10.22,43.19,25.71,43.19,57.36,0,42.2-34.29,63.3-86.38,63.3H1007.69ZM1104,212.25c22.42,0,36.6-7.25,36.6-25.05,0-15.17-11.87-23.74-33.3-23.74h-50.11v48.79Zm13.52,93c22.42,0,35.94-7.91,35.94-25.71,0-15.5-11.54-25.06-37.59-25.06h-58.68v50.77Z"/>
    <path class="cls-4" d="M1218.4,234.28c0-63.37,50-115.28,118.78-115.28s118.15,51.27,118.15,115.28c0,63.37-50,115.28-118.78,115.28S1218.4,298.29,1218.4,234.28Zm185.66,0c0-38.22-28-70.06-67.51-70.06s-66.88,31.21-66.88,70.06c0,38.21,28,70.06,67.51,70.06S1404.06,273.13,1404.06,234.28Z"/>
    <g>
      <path class="cls-4" d="M655,118.69h0l-172.49,0V349.47H513.3c6.14-.65,19.47-4.63,20.12-21.35V274.47c0-5.63,3.8-20.64,21.62-21.62l64.3.14c6.15-.65,19.16-4.66,19.8-21.38V206.55h0l-.47,0h-105l-.39-41.72,71,.19,0,0H619l16.2,0c6.14-.65,19.16-4.65,19.8-21.37V118.68Z"/>
      <path class="cls-4" d="M533.07,302.68V303h0Z"/>
      <polygon class="cls-4" points="533.09 303.04 533.09 303.04 533.09 303.05 533.09 303.04"/>
    </g>
    <path class="cls-4" d="M914.47,268.56h0c50.65-10.59,56.11-43,56.11-73,0-22.42-6.92-40.56-19.78-53.41-15.17-15.17-37.92-23.41-67.26-23.41H778.05V349.43l0,.06h30.81c6.14-.65,19.47-4.63,20.11-21.35V292.35c.53-6,4.52-17.83,18.77-20,8.9-1,16.18,4,20,9,14.95,19.56,40.26,52.27,45,58.32,6.9,8.89,12.51,9,18.36,9.71l43.07,0Zm-85.65-40.75V164.55h50.44c24.72,0,39.89,11.2,39.89,33,0,20.11-14.18,30.3-38.9,30.3Z"/>
    <g id="I">
      <path class="cls-4" d="M681.37,185.9l-.1,97.61h-.08v44.63c.72,18.82,16.91,21.33,21.59,21.33h28.94l.24.26V185.9Z"/>
      <path class="cls-5" d="M702.87,118.68l29.09,0v25.06c-.72,18.83-16.9,21.33-21.58,21.33H681.19s0-16.85,0-25.47C681.2,124.45,695.37,118.68,702.87,118.68Z"/>
    </g>
  </g>
</svg>
