<svg id="Layer_1" data-name="Layer 1" xmlns="http://www.w3.org/2000/svg" viewBox="0 0 82.4 16.4">
  <defs>
    <style>
      .cls-1 {
        fill: #c4dfee;
      }
    </style>
  </defs>
  <title>dottedPattern</title>
  <g>
    <rect class="cls-1" width="1.7" height="1.7"/>
    <rect class="cls-1" x="3.7" width="1.7" height="1.7"/>
    <rect class="cls-1" y="3.7" width="1.7" height="1.7"/>
    <rect class="cls-1" x="3.7" y="3.7" width="1.7" height="1.7"/>
    <rect class="cls-1" x="7.3" width="1.7" height="1.7"/>
    <rect class="cls-1" x="11" width="1.7" height="1.7"/>
    <rect class="cls-1" x="14.7" width="1.7" height="1.7"/>
    <rect class="cls-1" x="18.3" width="1.7" height="1.7"/>
    <rect class="cls-1" x="22" width="1.7" height="1.7"/>
    <rect class="cls-1" x="25.7" width="1.7" height="1.7"/>
    <rect class="cls-1" x="29.3" width="1.7" height="1.7"/>
    <rect class="cls-1" x="33" width="1.7" height="1.7"/>
    <rect class="cls-1" x="7.3" y="3.7" width="1.7" height="1.7"/>
    <rect class="cls-1" x="11" y="3.7" width="1.7" height="1.7"/>
    <rect class="cls-1" x="14.7" y="3.7" width="1.7" height="1.7"/>
    <rect class="cls-1" x="18.3" y="3.7" width="1.7" height="1.7"/>
    <rect class="cls-1" x="22" y="3.7" width="1.7" height="1.7"/>
    <rect class="cls-1" x="25.7" y="3.7" width="1.7" height="1.7"/>
    <rect class="cls-1" x="29.3" y="3.7" width="1.7" height="1.7"/>
    <rect class="cls-1" x="33" y="3.7" width="1.7" height="1.7"/>
    <rect class="cls-1" y="7.3" width="1.7" height="1.7"/>
    <rect class="cls-1" x="3.7" y="7.3" width="1.7" height="1.7"/>
    <rect class="cls-1" y="11" width="1.7" height="1.7"/>
    <rect class="cls-1" x="3.7" y="11" width="1.7" height="1.7"/>
    <rect class="cls-1" y="14.7" width="1.7" height="1.7"/>
    <rect class="cls-1" x="3.7" y="14.7" width="1.7" height="1.7"/>
    <rect class="cls-1" x="7.3" y="7.3" width="1.7" height="1.7"/>
    <rect class="cls-1" x="11" y="7.3" width="1.7" height="1.7"/>
    <rect class="cls-1" x="14.7" y="7.3" width="1.7" height="1.7"/>
    <rect class="cls-1" x="18.3" y="7.3" width="1.7" height="1.7"/>
    <rect class="cls-1" x="22" y="7.3" width="1.7" height="1.7"/>
    <rect class="cls-1" x="25.7" y="7.3" width="1.7" height="1.7"/>
    <rect class="cls-1" x="29.3" y="7.3" width="1.7" height="1.7"/>
    <rect class="cls-1" x="33" y="7.3" width="1.7" height="1.7"/>
    <rect class="cls-1" x="7.3" y="11" width="1.7" height="1.7"/>
    <rect class="cls-1" x="11" y="11" width="1.7" height="1.7"/>
    <rect class="cls-1" x="14.7" y="11" width="1.7" height="1.7"/>
    <rect class="cls-1" x="18.3" y="11" width="1.7" height="1.7"/>
    <rect class="cls-1" x="22" y="11" width="1.7" height="1.7"/>
    <rect class="cls-1" x="25.7" y="11" width="1.7" height="1.7"/>
    <rect class="cls-1" x="29.3" y="11" width="1.7" height="1.7"/>
    <rect class="cls-1" x="33" y="11" width="1.7" height="1.7"/>
    <rect class="cls-1" x="7.3" y="14.7" width="1.7" height="1.7"/>
    <rect class="cls-1" x="11" y="14.7" width="1.7" height="1.7"/>
    <rect class="cls-1" x="14.7" y="14.7" width="1.7" height="1.7"/>
    <rect class="cls-1" x="18.3" y="14.7" width="1.7" height="1.7"/>
    <rect class="cls-1" x="22" y="14.7" width="1.7" height="1.7"/>
    <rect class="cls-1" x="25.7" y="14.7" width="1.7" height="1.7"/>
    <rect class="cls-1" x="29.3" y="14.7" width="1.7" height="1.7"/>
    <rect class="cls-1" x="33" y="14.7" width="1.7" height="1.7"/>
    <rect class="cls-1" x="36.7" width="1.7" height="1.7"/>
    <rect class="cls-1" x="40.3" width="1.7" height="1.7"/>
    <rect class="cls-1" x="44" width="1.7" height="1.7"/>
    <rect class="cls-1" x="47.7" width="1.7" height="1.7"/>
    <rect class="cls-1" x="51.3" width="1.7" height="1.7"/>
    <rect class="cls-1" x="55" width="1.7" height="1.7"/>
    <rect class="cls-1" x="58.7" width="1.7" height="1.7"/>
    <rect class="cls-1" x="62.3" width="1.7" height="1.7"/>
    <rect class="cls-1" x="66" width="1.7" height="1.7"/>
    <rect class="cls-1" x="69.7" width="1.7" height="1.7"/>
    <rect class="cls-1" x="73.3" width="1.7" height="1.7"/>
    <rect class="cls-1" x="77" width="1.7" height="1.7"/>
    <rect class="cls-1" x="36.7" y="3.7" width="1.7" height="1.7"/>
    <rect class="cls-1" x="40.3" y="3.7" width="1.7" height="1.7"/>
    <rect class="cls-1" x="44" y="3.7" width="1.7" height="1.7"/>
    <rect class="cls-1" x="47.7" y="3.7" width="1.7" height="1.7"/>
    <rect class="cls-1" x="51.3" y="3.7" width="1.7" height="1.7"/>
    <rect class="cls-1" x="55" y="3.7" width="1.7" height="1.7"/>
    <rect class="cls-1" x="58.7" y="3.7" width="1.7" height="1.7"/>
    <rect class="cls-1" x="62.3" y="3.7" width="1.7" height="1.7"/>
    <rect class="cls-1" x="66" y="3.7" width="1.7" height="1.7"/>
    <rect class="cls-1" x="69.7" y="3.7" width="1.7" height="1.7"/>
    <rect class="cls-1" x="73.3" y="3.7" width="1.7" height="1.7"/>
    <rect class="cls-1" x="77" y="3.7" width="1.7" height="1.7"/>
    <rect class="cls-1" x="80.7" width="1.7" height="1.7"/>
    <rect class="cls-1" x="80.7" y="3.7" width="1.7" height="1.7"/>
    <rect class="cls-1" x="36.7" y="7.3" width="1.7" height="1.7"/>
    <rect class="cls-1" x="40.3" y="7.3" width="1.7" height="1.7"/>
    <rect class="cls-1" x="44" y="7.3" width="1.7" height="1.7"/>
    <rect class="cls-1" x="47.7" y="7.3" width="1.7" height="1.7"/>
    <rect class="cls-1" x="51.3" y="7.3" width="1.7" height="1.7"/>
    <rect class="cls-1" x="55" y="7.3" width="1.7" height="1.7"/>
    <rect class="cls-1" x="58.7" y="7.3" width="1.7" height="1.7"/>
    <rect class="cls-1" x="62.3" y="7.3" width="1.7" height="1.7"/>
    <rect class="cls-1" x="66" y="7.3" width="1.7" height="1.7"/>
    <rect class="cls-1" x="69.7" y="7.3" width="1.7" height="1.7"/>
    <rect class="cls-1" x="73.3" y="7.3" width="1.7" height="1.7"/>
    <rect class="cls-1" x="77" y="7.3" width="1.7" height="1.7"/>
    <rect class="cls-1" x="36.7" y="11" width="1.7" height="1.7"/>
    <rect class="cls-1" x="40.3" y="11" width="1.7" height="1.7"/>
    <rect class="cls-1" x="44" y="11" width="1.7" height="1.7"/>
    <rect class="cls-1" x="47.7" y="11" width="1.7" height="1.7"/>
    <rect class="cls-1" x="51.3" y="11" width="1.7" height="1.7"/>
    <rect class="cls-1" x="55" y="11" width="1.7" height="1.7"/>
    <rect class="cls-1" x="58.7" y="11" width="1.7" height="1.7"/>
    <rect class="cls-1" x="62.3" y="11" width="1.7" height="1.7"/>
    <rect class="cls-1" x="66" y="11" width="1.7" height="1.7"/>
    <rect class="cls-1" x="69.7" y="11" width="1.7" height="1.7"/>
    <rect class="cls-1" x="73.3" y="11" width="1.7" height="1.7"/>
    <rect class="cls-1" x="77" y="11" width="1.7" height="1.7"/>
    <rect class="cls-1" x="36.7" y="14.7" width="1.7" height="1.7"/>
    <rect class="cls-1" x="40.3" y="14.7" width="1.7" height="1.7"/>
    <rect class="cls-1" x="44" y="14.7" width="1.7" height="1.7"/>
    <rect class="cls-1" x="47.7" y="14.7" width="1.7" height="1.7"/>
    <rect class="cls-1" x="51.3" y="14.7" width="1.7" height="1.7"/>
    <rect class="cls-1" x="55" y="14.7" width="1.7" height="1.7"/>
    <rect class="cls-1" x="58.7" y="14.7" width="1.7" height="1.7"/>
    <rect class="cls-1" x="62.3" y="14.7" width="1.7" height="1.7"/>
    <rect class="cls-1" x="66" y="14.7" width="1.7" height="1.7"/>
    <rect class="cls-1" x="69.7" y="14.7" width="1.7" height="1.7"/>
    <rect class="cls-1" x="73.3" y="14.7" width="1.7" height="1.7"/>
    <rect class="cls-1" x="77" y="14.7" width="1.7" height="1.7"/>
    <rect class="cls-1" x="80.7" y="7.3" width="1.7" height="1.7"/>
    <rect class="cls-1" x="80.7" y="11" width="1.7" height="1.7"/>
    <rect class="cls-1" x="80.7" y="14.7" width="1.7" height="1.7"/>
  </g>
</svg>
