<svg id="Layer_1" data-name="Layer 1" xmlns="http://www.w3.org/2000/svg" xmlns:xlink="http://www.w3.org/1999/xlink" viewBox="0 0 1267.83 462.5">
  <defs>
    <style>
      .cls-1 {
        fill: url(#linear-gradient);
      }

      .cls-2 {
        fill: url(#linear-gradient-2);
      }

      .cls-3 {
        fill: url(#linear-gradient-3);
      }

      .cls-4 {
        fill: #fff;
      }

      .cls-5 {
        fill: url(#linear-gradient-4);
      }
    </style>
    <linearGradient id="linear-gradient" x1="121.25" y1="135.39" x2="365.44" y2="135.39" gradientUnits="userSpaceOnUse">
      <stop offset="0" stop-color="#1c7c3e"/>
      <stop offset="0.02" stop-color="#207e3e"/>
      <stop offset="0.25" stop-color="#50973c"/>
      <stop offset="0.47" stop-color="#76aa3b"/>
      <stop offset="0.68" stop-color="#91b83a"/>
      <stop offset="0.86" stop-color="#a1c139"/>
      <stop offset="1" stop-color="#a7c439"/>
    </linearGradient>
    <linearGradient id="linear-gradient-2" x1="30.56" y1="263.98" x2="358.05" y2="263.98" gradientUnits="userSpaceOnUse">
      <stop offset="0" stop-color="#a7c439"/>
      <stop offset="0.13" stop-color="#8eb73a"/>
      <stop offset="0.41" stop-color="#5d9e3c"/>
      <stop offset="0.66" stop-color="#3a8b3d"/>
      <stop offset="0.87" stop-color="#24803e"/>
      <stop offset="1" stop-color="#1c7c3e"/>
    </linearGradient>
    <linearGradient id="linear-gradient-3" x1="327.84" y1="300.78" x2="327.84" y2="184.78" gradientUnits="userSpaceOnUse">
      <stop offset="0" stop-color="#1c7c3e"/>
      <stop offset="1" stop-color="#a7c439"/>
    </linearGradient>
    <linearGradient id="linear-gradient-4" x1="797.19" y1="184.72" x2="797.19" y2="242.78" gradientUnits="userSpaceOnUse">
      <stop offset="0" stop-color="#fff"/>
      <stop offset="0.1" stop-color="#fbfcf5"/>
      <stop offset="0.28" stop-color="#eff4db"/>
      <stop offset="0.5" stop-color="#dce8b1"/>
      <stop offset="0.75" stop-color="#c2d677"/>
      <stop offset="1" stop-color="#a7c439"/>
    </linearGradient>
  </defs>
  <title>Artboard 1</title>
  <g>
    <polygon class="cls-1" points="365.44 40.22 187.06 40.22 121.25 118.38 207.94 230.56 365.44 40.22"/>
    <path class="cls-2" d="M30.56,226.1l151.5,192.75h176L130.31,129.61s-8.25-9.25-1.25-20.5Z"/>
    <polygon class="cls-3" points="254.59 234.13 306.14 300.78 401.08 186.35 296.4 184.78 254.59 234.13"/>
  </g>
  <g>
    <g>
      <path class="cls-4" d="M458.29,56.24h142V93.55h-101v39.7h89v37.3h-89v72.22h-41Z"/>
      <path class="cls-4" d="M619,56.24h41V242.77H619Z"/>
      <path class="cls-5" d="M746.14,184.72h42s4.12.26,8.37,4.64l51.77,53.41H806.55s-3.59.62-10.09-6S746.14,184.72,746.14,184.72Z"/>
      <path class="cls-4" d="M685.93,56.86H771.2c23.72,0,42.1,6.66,54.36,18.92,10.39,10.39,16,25,16,43.16,0,30.12-6.79,63.19-81.68,61.87H727v62.58h-41Zm82.61,90.6c20,0,31.44-10.66,31.44-26.92C800,103,787.72,93.9,767.74,93.9H727v53.56Z"/>
      <path class="cls-4" d="M854.57,56.24h86.6c21.32,0,38.1,5.86,48.76,16.52,8.53,8.53,12.79,18.92,12.79,32.24,0,21-11.19,32.78-24.51,40.24,21.58,8.26,34.9,20.78,34.9,46.36,0,34.11-27.71,51.17-69.81,51.17H854.57Zm77.81,75.41c18.11,0,29.57-5.86,29.57-20.25,0-12.26-9.59-19.19-26.91-19.19h-40.5v39.44Zm10.92,75.14c18.12,0,29-6.39,29-20.78,0-12.53-9.32-20.25-30.37-20.25H894.54v41Z"/>
      <path class="cls-4" d="M1017.6,149.5c0-53,41.84-96.46,99.39-96.46s98.86,42.9,98.86,96.46c0,53-41.83,96.46-99.39,96.46S1017.6,203.06,1017.6,149.5Zm155.35,0c0-32-23.45-58.62-56.49-58.62s-56,26.11-56,58.62c0,32,23.45,58.63,56.49,58.63S1173,182,1173,149.5Z"/>
    </g>
    <g>
      <path class="cls-4" d="M542.57,281.26V404.08h-4.45v-63.9H466.74v63.9h-4.45V281.26h4.45v55h71.38v-55Z"/>
      <path class="cls-4" d="M584.49,293.28q10.05-14.16,35.33-14.15t35.34,14.15q10.05,14.14,10.05,49.39t-10.05,49.4q-10.06,14.15-35.34,14.15t-35.33-14.15q-10.07-14.16-10.06-49.4T584.49,293.28Zm67.11,3.11q-9-13.17-31.78-13.17t-31.77,13.17q-9,13.19-9,46.28t9,46.28q9,13.19,31.77,13.18T651.6,389q9-13.17,9-46.28T651.6,296.39Z"/>
      <path class="cls-4" d="M750.29,340v.72q13.17,1.25,18.78,9.34t5.61,23.41q0,18.69-8.28,25.36t-29.46,6.68q-25.46,0-39.87-1.43V281.26a328.25,328.25,0,0,1,34.53-1.42q22.26,0,30.89,6.67t8.63,25.37q0,13.35-5,20.2T750.29,340Zm-48.77-1.42h33.64q17.63-.18,24.48-5.61t6.85-21.09q0-16.72-7.56-22.34t-27.33-5.61q-19.4,0-30.08.36Zm0,3.74v58.74q12.47.36,35.42.35,18.87,0,26-5.6t7.12-22.34q0-18-7.65-24.39t-27.24-6.76Z"/>
      <path class="cls-4" d="M811.26,293.28q10.05-14.16,35.33-14.15t35.34,14.15Q892,307.42,892,342.67t-10.05,49.4q-10.06,14.15-35.34,14.15t-35.33-14.15q-10.07-14.16-10.06-49.4T811.26,293.28Zm67.11,3.11q-9-13.17-31.78-13.17t-31.77,13.17q-9,13.19-9,46.28t9,46.28q9,13.19,31.77,13.18T878.37,389q9-13.17,9-46.28T878.37,296.39Z"/>
      <path class="cls-4" d="M996.82,399.81l1.07,3.21q-14.07,3.19-33.46,3.2-25.29,0-35.34-14.15T919,342.67q0-35.24,10.05-49.39t35.34-14.15a140.19,140.19,0,0,1,31,3l-1.07,3.21a189.58,189.58,0,0,0-29.9-2.14q-22.8,0-31.78,13.17t-9,46.28q0,33.12,9,46.28t31.78,13.18A192.43,192.43,0,0,0,996.82,399.81Z"/>
      <path class="cls-4" d="M1101,285.18H1057.7v118.9h-4.45V285.18h-43.08v-3.92H1101Z"/>
      <path class="cls-4" d="M1208.11,404.08h-4.45V288.21h-.18q-5.88,10.14-6.23,10.68l-68.89,105.19h-4.27V281.26h4.45V397.14h.18c.83-1.18,2.07-3.2,3.74-6.05s2.78-4.75,3.38-5.7l68-104.13h4.28Z"/>
    </g>
  </g>
</svg>
