<?xml version="1.0" encoding="utf-8"?>
<!-- Generator: Adobe Illustrator 22.1.0, SVG Export Plug-In . SVG Version: 6.00 Build 0)  -->
<svg version="1.1" id="Layer_1" xmlns="http://www.w3.org/2000/svg" xmlns:xlink="http://www.w3.org/1999/xlink" x="0px" y="0px"
	 viewBox="0 0 325.2 373.8" style="enable-background:new 0 0 325.2 373.8;" xml:space="preserve">
<style type="text/css">
	.st0{fill:url(#SVGID_1_);}
	.st1{fill:url(#SVGID_2_);}
	.st2{fill:url(#SVGID_3_);}
</style>
<title>logov2jstLogo</title>
<linearGradient id="SVGID_1_" gradientUnits="userSpaceOnUse" x1="239.1875" y1="331.39" x2="239.1875" y2="131.05" gradientTransform="matrix(1 0 0 -1 -40.72 331.39)">
	<stop  offset="0" style="stop-color:#32A8D8"/>
	<stop  offset="1" style="stop-color:#0C3A69"/>
</linearGradient>
<path class="st0" d="M89,91.5c-5.3-7.1-5.9-17,0.6-24.6L142.4,0h169.7L173.7,176.1c-8.3,12.6,0.8,24.2,0.8,24.2"/>
<linearGradient id="SVGID_2_" gradientUnits="userSpaceOnUse" x1="370.376" y1="199.4724" x2="252.2176" y2="131.2502" gradientTransform="matrix(1 0 0 -1 -40.72 331.39)">
	<stop  offset="0" style="stop-color:#32A8D8"/>
	<stop  offset="1" style="stop-color:#0C3A69"/>
</linearGradient>
<path class="st1" d="M212,179.5c-5,5.8-5.2,14.3-0.5,20.3l27.5,34.9l86.2-110.5l-69.7,0.1L212,179.5z"/>
<linearGradient id="SVGID_3_" gradientUnits="userSpaceOnUse" x1="40.7524" y1="111.04" x2="351.7" y2="111.04" gradientTransform="matrix(1 0 0 -1 -40.72 331.39)">
	<stop  offset="0" style="stop-color:#32A8D8"/>
	<stop  offset="1" style="stop-color:#1E5592"/>
</linearGradient>
<path class="st2" d="M174.7,200.3L89.6,66.9c0,0-78.7,100.1-84.8,108s-6.2,17.5-1,24.2l137.5,174.7H311L89,91.5
	c-5.3-7.1-5.9-17,0.6-24.6"/>
</svg>
