<svg xmlns="http://www.w3.org/2000/svg" xmlns:xlink="http://www.w3.org/1999/xlink" viewBox="0 0 325.2 373.8"><defs><style>.a{fill:none;stroke-miterlimit:10;stroke-width:5px;stroke:url(#a);}.b{fill:url(#b);}.c{fill:url(#c);}.d{fill:url(#d);}</style><linearGradient id="a" x1="140.96" y1="363.13" x2="148.45" y2="320.63" gradientTransform="matrix(1, 0, 0, -1, -40.72, 421.5)" gradientUnits="userSpaceOnUse"><stop offset="0" stop-color="#a5ddef"/><stop offset="1" stop-color="#185898"/></linearGradient><linearGradient id="b" x1="239.19" y1="42.5" x2="239.19" y2="242.84" gradientUnits="userSpaceOnUse"><stop offset="0" stop-color="#32a8d8"/><stop offset="1" stop-color="#0c3a69"/></linearGradient><linearGradient id="c" x1="370.37" y1="174.43" x2="252.25" y2="242.63" xlink:href="#b"/><linearGradient id="d" x1="40.72" y1="262.85" x2="351.7" y2="262.85" gradientUnits="userSpaceOnUse"><stop offset="0" stop-color="#32a8d8"/><stop offset="1" stop-color="#1e5592"/></linearGradient></defs><title>logov2jstLogo</title><circle class="a" cx="103.98" cy="79.6" r="19.1"/><path class="b" d="M129.7,134c-5.3-7.1-5.9-17,.6-24.6l52.8-66.9H352.8L214.46,218.6c-8.34,12.57.83,24.24.83,24.24m-85-133.44" transform="translate(-40.72 -42.5)"/><path class="c" d="M252.7,222a15.94,15.94,0,0,0-.49,20.3l27.48,34.94,86.23-110.54-69.68.06Z" transform="translate(-40.72 -42.5)"/><path class="d" d="M215.4,242.8,130.3,109.4s-78.7,100.1-84.8,108-6.2,17.5-1,24.2L182,416.3H351.7L129.7,134c-5.3-7.1-5.9-17,.6-24.6" transform="translate(-40.72 -42.5)"/></svg>