<svg xmlns="http://www.w3.org/2000/svg" viewBox="0 0 16.4 82.4"><defs><style>.a{fill:#c4dfee;}</style></defs><title>mapDottedVert</title><rect class="a" x="14.7" width="1.7" height="1.7"/><rect class="a" x="14.7" y="3.7" width="1.7" height="1.7"/><rect class="a" x="11" width="1.7" height="1.7"/><rect class="a" x="11" y="3.7" width="1.7" height="1.7"/><rect class="a" x="14.7" y="7.3" width="1.7" height="1.7"/><rect class="a" x="14.7" y="11" width="1.7" height="1.7"/><rect class="a" x="14.7" y="14.7" width="1.7" height="1.7"/><rect class="a" x="14.7" y="18.3" width="1.7" height="1.7"/><rect class="a" x="14.7" y="22" width="1.7" height="1.7"/><rect class="a" x="14.7" y="25.7" width="1.7" height="1.7"/><rect class="a" x="14.7" y="29.3" width="1.7" height="1.7"/><rect class="a" x="14.7" y="33" width="1.7" height="1.7"/><rect class="a" x="11" y="7.3" width="1.7" height="1.7"/><rect class="a" x="11" y="11" width="1.7" height="1.7"/><rect class="a" x="11" y="14.7" width="1.7" height="1.7"/><rect class="a" x="11" y="18.3" width="1.7" height="1.7"/><rect class="a" x="11" y="22" width="1.7" height="1.7"/><rect class="a" x="11" y="25.7" width="1.7" height="1.7"/><rect class="a" x="11" y="29.3" width="1.7" height="1.7"/><rect class="a" x="11" y="33" width="1.7" height="1.7"/><rect class="a" x="7.4" width="1.7" height="1.7"/><rect class="a" x="7.4" y="3.7" width="1.7" height="1.7"/><rect class="a" x="3.7" width="1.7" height="1.7"/><rect class="a" x="3.7" y="3.7" width="1.7" height="1.7"/><rect class="a" width="1.7" height="1.7"/><rect class="a" y="3.7" width="1.7" height="1.7"/><rect class="a" x="7.4" y="7.3" width="1.7" height="1.7"/><rect class="a" x="7.4" y="11" width="1.7" height="1.7"/><rect class="a" x="7.4" y="14.7" width="1.7" height="1.7"/><rect class="a" x="7.4" y="18.3" width="1.7" height="1.7"/><rect class="a" x="7.4" y="22" width="1.7" height="1.7"/><rect class="a" x="7.4" y="25.7" width="1.7" height="1.7"/><rect class="a" x="7.4" y="29.3" width="1.7" height="1.7"/><rect class="a" x="7.4" y="33" width="1.7" height="1.7"/><rect class="a" x="3.7" y="7.3" width="1.7" height="1.7"/><rect class="a" x="3.7" y="11" width="1.7" height="1.7"/><rect class="a" x="3.7" y="14.7" width="1.7" height="1.7"/><rect class="a" x="3.7" y="18.3" width="1.7" height="1.7"/><rect class="a" x="3.7" y="22" width="1.7" height="1.7"/><rect class="a" x="3.7" y="25.7" width="1.7" height="1.7"/><rect class="a" x="3.7" y="29.3" width="1.7" height="1.7"/><rect class="a" x="3.7" y="33" width="1.7" height="1.7"/><rect class="a" y="7.3" width="1.7" height="1.7"/><rect class="a" y="11" width="1.7" height="1.7"/><rect class="a" y="14.7" width="1.7" height="1.7"/><rect class="a" y="18.3" width="1.7" height="1.7"/><rect class="a" y="22" width="1.7" height="1.7"/><rect class="a" y="25.7" width="1.7" height="1.7"/><rect class="a" y="29.3" width="1.7" height="1.7"/><rect class="a" y="33" width="1.7" height="1.7"/><rect class="a" x="14.7" y="36.7" width="1.7" height="1.7"/><rect class="a" x="14.7" y="40.3" width="1.7" height="1.7"/><rect class="a" x="14.7" y="44" width="1.7" height="1.7"/><rect class="a" x="14.7" y="47.7" width="1.7" height="1.7"/><rect class="a" x="14.7" y="51.3" width="1.7" height="1.7"/><rect class="a" x="14.7" y="55" width="1.7" height="1.7"/><rect class="a" x="14.7" y="58.7" width="1.7" height="1.7"/><rect class="a" x="14.7" y="62.3" width="1.7" height="1.7"/><rect class="a" x="14.7" y="66" width="1.7" height="1.7"/><rect class="a" x="14.7" y="69.7" width="1.7" height="1.7"/><rect class="a" x="14.7" y="73.3" width="1.7" height="1.7"/><rect class="a" x="14.7" y="77" width="1.7" height="1.7"/><rect class="a" x="11" y="36.7" width="1.7" height="1.7"/><rect class="a" x="11" y="40.3" width="1.7" height="1.7"/><rect class="a" x="11" y="44" width="1.7" height="1.7"/><rect class="a" x="11" y="47.7" width="1.7" height="1.7"/><rect class="a" x="11" y="51.3" width="1.7" height="1.7"/><rect class="a" x="11" y="55" width="1.7" height="1.7"/><rect class="a" x="11" y="58.7" width="1.7" height="1.7"/><rect class="a" x="11" y="62.3" width="1.7" height="1.7"/><rect class="a" x="11" y="66" width="1.7" height="1.7"/><rect class="a" x="11" y="69.7" width="1.7" height="1.7"/><rect class="a" x="11" y="73.3" width="1.7" height="1.7"/><rect class="a" x="11" y="77" width="1.7" height="1.7"/><rect class="a" x="14.7" y="80.7" width="1.7" height="1.7"/><rect class="a" x="11" y="80.7" width="1.7" height="1.7"/><rect class="a" x="7.4" y="36.7" width="1.7" height="1.7"/><rect class="a" x="7.4" y="40.3" width="1.7" height="1.7"/><rect class="a" x="7.4" y="44" width="1.7" height="1.7"/><rect class="a" x="7.4" y="47.7" width="1.7" height="1.7"/><rect class="a" x="7.4" y="51.3" width="1.7" height="1.7"/><rect class="a" x="7.4" y="55" width="1.7" height="1.7"/><rect class="a" x="7.4" y="58.7" width="1.7" height="1.7"/><rect class="a" x="7.4" y="62.3" width="1.7" height="1.7"/><rect class="a" x="7.4" y="66" width="1.7" height="1.7"/><rect class="a" x="7.4" y="69.7" width="1.7" height="1.7"/><rect class="a" x="7.4" y="73.3" width="1.7" height="1.7"/><rect class="a" x="7.4" y="77" width="1.7" height="1.7"/><rect class="a" x="3.7" y="36.7" width="1.7" height="1.7"/><rect class="a" x="3.7" y="40.3" width="1.7" height="1.7"/><rect class="a" x="3.7" y="44" width="1.7" height="1.7"/><rect class="a" x="3.7" y="47.7" width="1.7" height="1.7"/><rect class="a" x="3.7" y="51.3" width="1.7" height="1.7"/><rect class="a" x="3.7" y="55" width="1.7" height="1.7"/><rect class="a" x="3.7" y="58.7" width="1.7" height="1.7"/><rect class="a" x="3.7" y="62.3" width="1.7" height="1.7"/><rect class="a" x="3.7" y="66" width="1.7" height="1.7"/><rect class="a" x="3.7" y="69.7" width="1.7" height="1.7"/><rect class="a" x="3.7" y="73.3" width="1.7" height="1.7"/><rect class="a" x="3.7" y="77" width="1.7" height="1.7"/><rect class="a" y="36.7" width="1.7" height="1.7"/><rect class="a" y="40.3" width="1.7" height="1.7"/><rect class="a" y="44" width="1.7" height="1.7"/><rect class="a" y="47.7" width="1.7" height="1.7"/><rect class="a" y="51.3" width="1.7" height="1.7"/><rect class="a" y="55" width="1.7" height="1.7"/><rect class="a" y="58.7" width="1.7" height="1.7"/><rect class="a" y="62.3" width="1.7" height="1.7"/><rect class="a" y="66" width="1.7" height="1.7"/><rect class="a" y="69.7" width="1.7" height="1.7"/><rect class="a" y="73.3" width="1.7" height="1.7"/><rect class="a" y="77" width="1.7" height="1.7"/><rect class="a" x="7.4" y="80.7" width="1.7" height="1.7"/><rect class="a" x="3.7" y="80.7" width="1.7" height="1.7"/><rect class="a" y="80.7" width="1.7" height="1.7"/></svg>