<svg id="Layer_1" data-name="Layer 1" xmlns="http://www.w3.org/2000/svg" xmlns:xlink="http://www.w3.org/1999/xlink" viewBox="0 0 1526.17 462.5">
  <defs>
    <style>
      .cls-1 {
        fill: url(#linear-gradient);
      }

      .cls-2 {
        fill: url(#linear-gradient-2);
      }

      .cls-3 {
        fill: url(#linear-gradient-3);
      }

      .cls-4 {
        fill: #fff;
      }

      .cls-5 {
        fill: url(#linear-gradient-4);
      }
    </style>
    <linearGradient id="linear-gradient" x1="250.19" y1="42.5" x2="250.19" y2="242.84" gradientUnits="userSpaceOnUse">
      <stop offset="0" stop-color="#fff"/>
      <stop offset="1" stop-color="#ccc"/>
    </linearGradient>
    <linearGradient id="linear-gradient-2" x1="399.63" y1="171.91" x2="281.51" y2="240.11" xlink:href="#linear-gradient"/>
    <linearGradient id="linear-gradient-3" x1="51.72" y1="262.85" x2="362.7" y2="262.85" gradientUnits="userSpaceOnUse">
      <stop offset="0" stop-color="#fff"/>
      <stop offset="1" stop-color="#fff"/>
    </linearGradient>
    <linearGradient id="linear-gradient-4" x1="694.17" y1="120.42" x2="719.09" y2="163.59" gradientUnits="userSpaceOnUse">
      <stop offset="0" stop-color="#32a8d8"/>
      <stop offset="1" stop-color="#1f7798"/>
    </linearGradient>
  </defs>
  <title>Artboard 1</title>
  <g id="logo">
    <path class="cls-1" d="M140.7,134c-5.3-7.1-5.9-17,.6-24.6l52.8-66.9H363.8L225.46,218.6c-8.34,12.57.83,24.24.83,24.24m-85-133.44"/>
    <path class="cls-2" d="M282,219.49a15.94,15.94,0,0,0-.49,20.3L309,274.72l86.23-110.53-69.68.06Z"/>
    <path class="cls-3" d="M226.4,242.8,141.3,109.4s-78.7,100.1-84.8,108-6.2,17.5-1,24.2L193,416.3H362.7L140.7,134c-5.3-7.1-5.9-17,.6-24.6"/>
  </g>
  <g id="text">
    <path class="cls-4" d="M1007.88,119H1115c26.38,0,47.15,7.25,60.34,20.44,10.55,10.55,15.82,23.41,15.82,39.89,0,26-13.85,40.55-30.33,49.78,26.7,10.22,43.19,25.72,43.19,57.37,0,42.2-34.29,63.3-86.38,63.3H1007.88Zm96.27,93.3c22.41,0,36.59-7.25,36.59-25.06,0-15.16-11.87-23.73-33.3-23.73h-50.11V212.3Zm13.51,93c22.42,0,35.94-7.91,35.94-25.72,0-15.49-11.54-25.05-37.59-25.05h-58.68v50.77Z"/>
    <path class="cls-4" d="M1218.59,234.32c0-63.37,50-115.27,118.78-115.27s118.15,51.27,118.15,115.27c0,63.37-50,115.28-118.78,115.28S1218.59,298.33,1218.59,234.32Zm185.66,0c0-38.21-28-70.06-67.51-70.06s-66.88,31.21-66.88,70.06c0,38.22,28,70.06,67.51,70.06S1404.25,273.17,1404.25,234.32Z"/>
    <g>
      <path class="cls-4" d="M655.17,118.73h0l-172.49,0V349.52h30.81c6.14-.65,19.48-4.63,20.12-21.35V274.51c0-5.63,3.8-20.63,21.62-21.62l64.3.14c6.15-.65,19.16-4.65,19.8-21.37V206.6H533.85l-.4-41.71,71,.18,0,0h14.77l16.2,0c6.14-.65,19.16-4.65,19.8-21.38V118.72Z"/>
      <path class="cls-4" d="M533.26,302.72v.36h0Z"/>
      <polygon class="cls-4" points="533.28 303.08 533.28 303.08 533.28 303.09 533.28 303.08"/>
    </g>
    <path class="cls-4" d="M914.66,268.6h0c50.65-10.58,56.11-43,56.11-73,0-22.42-6.92-40.55-19.78-53.41-15.17-15.16-37.91-23.4-67.26-23.4H778.24v230.7l0,.07H809c6.14-.65,19.47-4.63,20.11-21.35V292.4c.53-6,4.52-17.83,18.77-20,8.9-1,16.18,4,20,9,15,19.55,40.26,52.27,45,58.32,6.9,8.88,12.51,9,18.36,9.7l43.07,0ZM829,227.86V164.59h50.44c24.72,0,39.89,11.21,39.89,33,0,20.11-14.18,30.3-38.9,30.3Z"/>
    <path class="cls-4" d="M681.56,186l-.1,97.6h-.08v44.63c.72,18.83,16.91,21.34,21.59,21.34h28.94l.24.26V186Z"/>
    <path class="cls-5" d="M702.87,118.68l29.09,0v25.06c-.72,18.83-16.9,21.33-21.58,21.33H681.19s0-16.85,0-25.47C681.2,124.45,695.37,118.68,702.87,118.68Z"/>
  </g>
</svg>
