<?xml version="1.0" standalone="no"?>
<!DOCTYPE svg PUBLIC "-//W3C//DTD SVG 20010904//EN"
 "http://www.w3.org/TR/2001/REC-SVG-20010904/DTD/svg10.dtd">
<svg version="1.0" xmlns="http://www.w3.org/2000/svg"
 width="748.000000pt" height="748.000000pt" viewBox="0 0 748.000000 748.000000"
 preserveAspectRatio="xMidYMid meet">
<metadata>
Created by potrace 1.11, written by Peter Selinger 2001-2013
</metadata>
<g transform="translate(0.000000,748.000000) scale(0.100000,-0.100000)"
fill="#000000" stroke="none">
<path d="M3300 7431 c-19 -25 -42 -55 -52 -66 -34 -41 -256 -323 -323 -410
-38 -49 -74 -95 -80 -101 -5 -6 -22 -26 -36 -45 -131 -167 -524 -665 -529
-669 -3 -3 -41 -52 -85 -109 -44 -56 -102 -131 -130 -165 -27 -34 -61 -77 -75
-96 -14 -18 -89 -114 -168 -214 -169 -215 -134 -170 -457 -582 -144 -182 -273
-347 -288 -365 -313 -395 -525 -675 -549 -724 -38 -82 -47 -188 -24 -269 22
-75 25 -79 149 -236 7 -8 86 -109 177 -225 91 -115 171 -217 177 -225 7 -8
117 -148 244 -310 128 -162 244 -311 260 -330 15 -19 100 -127 189 -240 88
-113 171 -218 185 -235 23 -28 125 -158 323 -411 48 -61 98 -126 112 -144 14
-18 30 -38 36 -44 5 -6 34 -42 64 -81 30 -38 106 -135 169 -215 195 -247 225
-285 251 -319 14 -18 39 -50 55 -70 17 -20 117 -148 224 -284 l194 -247 1700
0 c1618 0 1699 1 1685 18 -8 9 -73 91 -144 182 -71 91 -134 172 -141 180 -26
33 -153 195 -248 316 -55 70 -143 182 -196 248 -52 67 -221 281 -374 476 -153
195 -323 411 -377 480 -55 69 -110 139 -123 155 -12 17 -168 215 -345 440
-177 226 -333 424 -346 440 -13 17 -111 141 -219 278 -107 136 -195 249 -195
252 0 2 -13 23 -29 47 -57 84 -78 217 -51 318 18 69 50 118 173 270 7 8 59 76
117 150 57 74 112 144 121 155 10 11 96 121 193 245 97 124 229 292 294 374
64 82 144 184 176 225 33 42 83 105 111 141 77 97 417 529 477 608 44 56 725
922 765 972 6 8 82 105 168 215 86 110 168 215 183 234 15 18 30 39 34 46 6 9
-373 12 -1690 12 l-1698 0 -34 -46z"/>
<path d="M5609 4992 c-8 -2 -97 -109 -199 -239 -102 -130 -241 -307 -310 -394
-69 -87 -150 -190 -180 -230 -30 -39 -60 -76 -65 -83 -6 -6 -35 -42 -65 -81
-30 -38 -61 -77 -69 -85 -8 -8 -26 -39 -40 -70 -21 -45 -26 -70 -26 -135 0
-124 -26 -83 458 -699 56 -71 107 -134 113 -140 6 -6 16 -22 23 -34 7 -12 16
-20 22 -17 5 4 55 66 111 138 57 73 108 139 115 147 7 8 114 146 238 305 124
160 236 304 249 320 14 17 59 75 102 130 43 55 206 264 363 465 156 201 295
379 308 395 12 17 70 90 128 164 58 74 104 136 101 138 -5 5 -1355 10 -1377 5z"/>
</g>
</svg>
